Coordinates
version=1
nRows=16
nColumns=36
inDegrees=yes

Units are S.I. units (second, meters, Newtons, ...)
If the header above contains a line with 'inDegrees', this indicates whether rotational values are in degrees (yes) or radians (no).

endheader
time	pelvis_tilt	pelvis_list	pelvis_rotation	pelvis_tx	pelvis_ty	pelvis_tz	hip_flexion_r	hip_adduction_r	hip_rotation_r	knee_angle_r	knee_angle_r_beta	ankle_angle_r	subtalar_angle_r	mtp_angle_r	hip_flexion_l	hip_adduction_l	hip_rotation_l	knee_angle_l	knee_angle_l_beta	ankle_angle_l	subtalar_angle_l	mtp_angle_l	lumbar_extension	lumbar_bending	lumbar_rotation	arm_flex_r	arm_add_r	arm_rot_r	elbow_flex_r	pro_sup_r	arm_flex_l	arm_add_l	arm_rot_l	elbow_flex_l	pro_sup_l
      0.75000000	     -6.73318184	     -2.32433408	      3.72855562	      0.26420780	      0.63977868	     -0.00427720	     84.82158404	     -1.25310176	      2.88636570	     95.23049013	      1.66208560	     17.98869853	     -7.12862900	     -7.49984823	     84.68724727	     -2.72053372	      3.21303638	     98.30234252	      1.71569954	     19.90671451	    -13.02313026	     -7.49984823	    -41.00479595	      1.97196284	      0.52884586	     39.03218210	    -10.62357685	     36.99293015	     17.51508617	     80.84641159	     38.23138984	    -10.38161069	     57.02197965	      8.79009162	     58.12210571
      0.76666670	     -8.70778074	     -2.58968358	      4.01014146	      0.27948649	      0.63736598	     -0.00577264	     86.18191004	     -1.53062076	      2.58758345	     95.39453689	      1.66494876	     18.80591987	     -6.89393681	     -7.49985091	     86.12593599	     -2.89947405	      3.35303888	     98.38849431	      1.71720317	     20.82940161	    -12.16608356	     -7.49985091	    -39.93299415	      2.09159547	      0.73931926	     38.77642586	    -10.84678831	     36.52667660	     17.58879564	     81.38006158	     38.11479290	    -10.25522938	     56.46900408	      8.93350131	     58.21788717
      0.78333330	    -10.66034046	     -2.75441998	      4.04136879	      0.29274196	      0.63609330	     -0.01173424	     87.38337662	     -1.93828900	      2.37622031	     95.78167257	      1.67170555	     19.97500432	     -6.23230494	     -7.49985505	     87.41097274	     -2.87669988	      3.26869388	     98.71758820	      1.72294694	     21.67867119	    -11.86478667	     -7.49985505	    -38.83965675	      2.27176707	      0.92028240	     38.30149052	    -11.08934199	     35.65950037	     17.59413908	     82.11198526	     37.67772258	     -9.96375240	     55.24232638	      9.09444232	     58.21846761
      0.80000000	    -12.25123321	     -2.99670090	      4.30760698	      0.28968869	      0.63475764	     -0.00952762	     88.66582631	     -2.51464092	      2.04660412	     96.21221936	      1.67922001	     20.45154135	     -5.79000011	     -7.49985700	     88.69276564	     -2.52743656	      3.45056331	     98.81902153	      1.72471729	     22.47346832	    -11.42644918	     -7.49985700	    -38.35002561	      2.50314335	      1.09000091	     38.09443808	    -11.20182926	     35.12679131	     17.57264662	     82.39154666	     37.73582958	     -9.94995486	     54.61963853	      9.34195180	     58.21614034
      0.81666670	    -13.95268040	     -3.27363698	      4.51138137	      0.29433984	      0.63582334	     -0.00775664	     90.19543876	     -2.79931100	      1.82679216	     96.57943961	      1.68562921	     20.67272523	     -5.56380822	     -7.49994221	     90.22847195	     -2.43235106	      3.75284714	     98.79020717	      1.72421438	     22.53879887	    -11.09335670	     -7.49994221	    -37.88523376	      2.81665185	      1.00920687	     37.04006546	    -10.72757838	     25.53138805	     19.47199825	     95.03627955	     36.88243863	    -10.51123288	     42.71718529	     12.40087324	     67.06712407
      0.83333330	    -15.61774241	     -3.28419354	      4.61795528	      0.29962732	      0.63944844	     -0.01023625	     91.36993501	     -2.97052931	      1.94520471	     96.50808318	      1.68438381	     20.69114260	     -5.17225130	     -7.49994302	     91.41956722	     -2.18762071	      3.77491076	     98.37517352	      1.71697068	     22.37546640	    -11.02873654	     -7.49994302	    -37.48704584	      2.80744712	      1.05564171	     36.92561515	    -10.74518487	     25.28629274	     19.39996513	     94.90086609	     37.30592775	    -10.61100185	     42.58991121	     12.59194791	     67.09706698
      0.85000000	    -16.90150612	     -3.22890677	      4.63754651	      0.30923925	      0.64479390	     -0.00612213	     91.90368992	     -2.58178295	      2.24167181	     96.11746311	      1.67756620	     20.48780236	     -5.21441251	     -7.49994408	     92.01216826	     -2.30728942	      3.79114356	     98.00471543	      1.71050497	     21.56726566	    -11.51686463	     -7.49994408	    -37.51039953	      2.39129588	      1.41511642	     36.78893883	    -10.78503340	     24.97750943	     19.20128536	     94.71873727	     37.92707265	    -10.63872010	     42.30126944	     12.78693489	     67.10485526
      0.86666670	    -17.95958549	     -3.24152988	      4.25207339	      0.32163250	      0.64501133	     -0.00447903	     91.99642486	     -1.75101969	      2.45976930	     95.88569853	      1.67352114	     20.90932532	     -5.07945752	     -7.49994442	     92.14639878	     -2.60014317	      4.08185095	     97.96362331	      1.70978777	     21.53339261	    -11.69306072	     -7.49994442	    -37.47583532	      1.96536602	      1.73056333	     36.69714337	    -10.75409607	     24.91182753	     19.06022526	     94.66583372	     38.08087393	    -10.82813173	     42.14117172	     12.74841984	     67.08276128
      0.88333330	    -19.16210745	     -3.10399409	      3.82084868	      0.33004289	      0.64633422	     -0.00030660	     92.29241951	     -0.88058597	      2.70061007	     95.76218263	      1.67136539	     21.29664240	     -5.21935237	     -7.49994550	     92.44620594	     -3.01653408	      4.27801563	     97.88386333	      1.70839570	     21.90795860	    -11.56686027	     -7.49994550	    -36.87667796	      1.28857873	      2.25494131	     36.14976694	    -10.69487462	     24.64847047	     18.74633716	     94.45535131	     38.02960612	    -10.79086070	     41.58333448	     12.72407923	     66.96512439
      0.90000000	    -20.43633634	     -2.93369017	      3.61811548	      0.33395820	      0.64788424	     -0.00241884	     92.65239286	     -0.48321532	      3.00103700	     95.39994666	      1.66504318	     21.96201818	     -5.38333267	     -7.49995552	     92.88854517	     -3.02811504	      4.20309434	     97.74679592	      1.70600342	     22.28805627	    -11.22261284	     -7.49995552	    -36.17077173	      1.06226123	      2.15787754	     35.80058388	    -10.34871833	     22.80782537	     19.08648938	     92.86573550	     37.20305696	    -11.11857486	     37.66524669	     13.85133799	     66.11744746
      0.91666670	    -21.50844216	     -2.92619754	      3.57691603	      0.33814303	      0.64935213	     -0.00036357	     92.99923280	     -0.31947543	      3.08239916	     95.04858546	      1.65891077	     22.54935862	     -5.50076114	     -7.49995716	     93.26316521	     -3.10155177	      4.24889342	     97.46291036	      1.70104868	     22.56426200	    -10.97717882	     -7.49995716	    -35.37728350	      0.91090058	      2.19696806	     35.58077896	    -10.27756935	     22.55000783	     19.46635935	     92.33828657	     36.96596083	    -11.30514144	     37.31547531	     13.75686049	     66.00119490
      0.93333330	    -22.23257701	     -2.98341935	      3.64748481	      0.34328332	      0.65700029	      0.00149880	     92.80644624	     -0.19093793	      2.93486767	     94.41070309	      1.64777762	     22.83883139	     -5.85941802	     -7.49995748	     93.01843116	     -3.23074845	      4.25418063	     96.77035287	      1.68896128	     22.51690333	    -10.67937809	     -7.49995748	    -35.13387370	      0.79290785	      2.19310559	     35.53678937	    -10.14570033	     22.44791243	     19.66517885	     92.29727460	     37.02217490	    -11.48342316	     37.26301981	     13.85789479	     66.02497320
      0.95000000	    -22.89982819	     -3.04469718	      3.76843260	      0.34511340	      0.66672724	      0.00121024	     92.38394211	     -0.19792886	      2.82099532	     93.27864497	      1.62801948	     22.86081097	     -6.05919403	     -7.49995775	     92.44373722	     -3.26000416	      4.14399334	     95.57607988	      1.66811728	     22.49341660	    -10.42950898	     -7.49995775	    -34.89251577	      0.68888920	      2.12997352	     35.37528762	    -10.06232960	     22.39819692	     19.81551239	     92.22120280	     36.97194772	    -11.54473791	     37.25402523	     14.01119091	     66.03090274
      0.96666670	    -23.30244804	     -2.83228703	      3.65605295	      0.35413143	      0.67105530	      0.00101174	     91.80972262	     -0.10984290	      2.87071788	     92.55655491	      1.61541663	     22.43213585	     -7.04073159	     -7.49995841	     91.50614214	     -3.73220995	      3.75677379	     94.43828067	      1.64825894	     22.92813978	     -9.58627565	     -7.49995841	    -34.87818170	      0.28725118	      1.96208812	     35.50657140	     -9.65222390	     21.76509840	     19.84950131	     92.27072441	     37.27423711	    -11.65498433	     37.18037575	     13.66754858	     66.17585906
      0.98333330	    -23.92927594	     -2.82172164	      3.53008025	      0.36249331	      0.67674615	      0.00015384	     91.20181580	     -0.21604735	      2.65065772	     91.63043808	      1.59925284	     22.61204573	     -7.06521397	     -7.49995852	     90.78463570	     -4.02517786	      3.47430079	     93.34320473	      1.62914626	     23.32891240	     -9.51493803	     -7.49995852	    -34.31792772	      0.34835890	      1.96676620	     35.23561250	     -9.52251582	     21.69032255	     19.79313019	     92.28565489	     37.34256871	    -11.69244466	     37.15227152	     13.66082763	     66.19417149
      1.00000000	    -24.28677907	     -2.53323507	      3.24639030	      0.37421954	      0.68286606	      0.00209123	     90.15532977	     -0.00550033	      2.75943114	     90.73094126	      1.58355366	     23.22356065	     -6.87960499	     -7.49995922	     89.58831577	     -4.74990905	      2.83451975	     92.38280845	      1.61238418	     24.52137536	     -8.27688761	     -7.49995922	    -33.78305567	     -0.05632195	      2.02922615	     34.67657215	     -9.18126622	     20.98155367	     19.41557375	     92.38924647	     37.27652978	    -11.72434310	     36.83884544	     13.43729623	     66.27497733
